<svg xmlns="http://www.w3.org/2000/svg" viewBox="0 0 800 960" width="800" height="960">
  <defs>
    <radialGradient id="bg" cx="50%" cy="48%" r="75%">
      <stop offset="0%"   stop-color="#5A1535"/>
      <stop offset="40%"  stop-color="#2E0A1A"/>
      <stop offset="100%" stop-color="#090208"/>
    </radialGradient>
    <radialGradient id="halo" cx="50%" cy="54%" r="48%">
      <stop offset="0%"   stop-color="#D05080" stop-opacity="0.42"/>
      <stop offset="55%"  stop-color="#901040" stop-opacity="0.14"/>
      <stop offset="100%" stop-color="#500020" stop-opacity="0"/>
    </radialGradient>

    <linearGradient id="bodyGrad" x1="0%" y1="0%" x2="100%" y2="0%">
      <stop offset="0%"   stop-color="#A02050"/>
      <stop offset="18%"  stop-color="#CC4070"/>
      <stop offset="40%"  stop-color="#EE90B0"/>
      <stop offset="58%"  stop-color="#FAD4E4"/>
      <stop offset="78%"  stop-color="#DE7090"/>
      <stop offset="100%" stop-color="#981848"/>
    </linearGradient>
    <linearGradient id="glassInner" x1="0%" y1="0%" x2="100%" y2="0%">
      <stop offset="0%"   stop-color="rgba(200,50,80,0.20)"/>
      <stop offset="35%"  stop-color="rgba(255,210,228,0.55)"/>
      <stop offset="60%"  stop-color="rgba(255,238,248,0.75)"/>
      <stop offset="100%" stop-color="rgba(180,40,70,0.25)"/>
    </linearGradient>
    <linearGradient id="capGold" x1="0%" y1="0%" x2="100%" y2="100%">
      <stop offset="0%"   stop-color="#FFF5A0"/>
      <stop offset="35%"  stop-color="#F9E04B"/>
      <stop offset="70%"  stop-color="#D4A200"/>
      <stop offset="100%" stop-color="#A87800"/>
    </linearGradient>
    <linearGradient id="capGoldSide" x1="0%" y1="0%" x2="0%" y2="100%">
      <stop offset="0%"   stop-color="#FFF0A0"/>
      <stop offset="50%"  stop-color="#F9E04B"/>
      <stop offset="100%" stop-color="#C89800"/>
    </linearGradient>
    <linearGradient id="shoulderGrad" x1="0%" y1="0%" x2="100%" y2="0%">
      <stop offset="0%"   stop-color="#B83868"/>
      <stop offset="30%"  stop-color="#E890AC"/>
      <stop offset="60%"  stop-color="#FAD8E4"/>
      <stop offset="100%" stop-color="#A83060"/>
    </linearGradient>
    <linearGradient id="labelBase" x1="0%" y1="0%" x2="0%" y2="100%">
      <stop offset="0%"   stop-color="rgba(255,255,255,0.95)"/>
      <stop offset="100%" stop-color="rgba(252,215,232,0.84)"/>
    </linearGradient>
    <linearGradient id="goldStripe" x1="0%" y1="0%" x2="100%" y2="0%">
      <stop offset="0%"   stop-color="#F9E04B"/>
      <stop offset="50%"  stop-color="#FFE860"/>
      <stop offset="100%" stop-color="#D4A200"/>
    </linearGradient>
    <linearGradient id="neckGrad" x1="0%" y1="0%" x2="100%" y2="0%">
      <stop offset="0%"   stop-color="#B83868"/>
      <stop offset="40%"  stop-color="#F0B0C4"/>
      <stop offset="60%"  stop-color="#FDE0EC"/>
      <stop offset="100%" stop-color="#A82858"/>
    </linearGradient>

    <!-- Filters -->
    <filter id="bokehL" x="-100%" y="-100%" width="300%" height="300%">
      <feGaussianBlur stdDeviation="22"/>
    </filter>
    <filter id="bokehM" x="-100%" y="-100%" width="300%" height="300%">
      <feGaussianBlur stdDeviation="11"/>
    </filter>
    <filter id="bokehS" x="-80%" y="-80%" width="260%" height="260%">
      <feGaussianBlur stdDeviation="5"/>
    </filter>
    <filter id="streakF" x="-20%" y="-120%" width="140%" height="340%">
      <feGaussianBlur stdDeviation="1.2 5"/>
    </filter>
    <filter id="pglow" x="-200%" y="-200%" width="500%" height="500%">
      <feGaussianBlur stdDeviation="5" result="b"/>
      <feMerge><feMergeNode in="b"/><feMergeNode in="b"/><feMergeNode in="SourceGraphic"/></feMerge>
    </filter>
    <filter id="spark" x="-300%" y="-300%" width="700%" height="700%">
      <feGaussianBlur stdDeviation="3.5" result="b"/>
      <feMerge><feMergeNode in="b"/><feMergeNode in="b"/><feMergeNode in="SourceGraphic"/></feMerge>
    </filter>
    <filter id="bottleShadow" x="-25%" y="-10%" width="150%" height="130%">
      <feDropShadow dx="0"  dy="24" stdDeviation="32" flood-color="#800030" flood-opacity="0.60"/>
      <feDropShadow dx="-8" dy="8"  stdDeviation="14" flood-color="#400018" flood-opacity="0.28"/>
    </filter>
    <filter id="petalF">
      <feDropShadow dx="2" dy="3" stdDeviation="5" flood-color="#600020" flood-opacity="0.45"/>
    </filter>
    <filter id="leafF">
      <feDropShadow dx="1" dy="2" stdDeviation="3" flood-color="#102010" flood-opacity="0.55"/>
    </filter>
    <clipPath id="bodyClip">
      <path d="M288,340 L288,762 Q288,778 304,778 L496,778 Q512,778 512,762 L512,340 Z"/>
    </clipPath>
  </defs>

  <!-- ══ BACKGROUND ══ -->
  <rect width="800" height="960" fill="url(#bg)"/>
  <!-- Subtle ring texture -->
  <circle cx="400" cy="480" r="360" fill="none" stroke="rgba(200,50,100,0.05)" stroke-width="70"/>
  <circle cx="400" cy="480" r="260" fill="none" stroke="rgba(200,60,100,0.05)" stroke-width="50"/>
  <circle cx="400" cy="480" r="170" fill="none" stroke="rgba(220,70,110,0.06)" stroke-width="35"/>
  <!-- Central bottle halo -->
  <ellipse cx="400" cy="500" rx="290" ry="370" fill="url(#halo)"/>

  <!-- ══ LARGE BOKEH ATMOSPHERE ══ -->
  <circle cx="175" cy="235" r="58"  fill="#D05080" opacity="0.20" filter="url(#bokehL)"/>
  <circle cx="645" cy="195" r="52"  fill="#F9E04B" opacity="0.24" filter="url(#bokehL)"/>
  <circle cx="115" cy="580" r="46"  fill="#D05080" opacity="0.18" filter="url(#bokehL)"/>
  <circle cx="705" cy="595" r="50"  fill="#F0A0B8" opacity="0.20" filter="url(#bokehL)"/>
  <circle cx="255" cy="805" r="42"  fill="#F4C0D0" opacity="0.16" filter="url(#bokehL)"/>
  <circle cx="585" cy="785" r="44"  fill="#F9E04B" opacity="0.18" filter="url(#bokehL)"/>
  <circle cx="400" cy="115" r="90"  fill="#F0C0D8" opacity="0.22" filter="url(#bokehL)"/>
  <circle cx="400" cy="50"  r="65"  fill="#FAD0E8" opacity="0.18" filter="url(#bokehL)"/>

  <!-- Medium bokeh -->
  <circle cx="308" cy="158" r="24"  fill="#FAD0E0" opacity="0.34" filter="url(#bokehM)"/>
  <circle cx="502" cy="142" r="22"  fill="#F9E04B" opacity="0.38" filter="url(#bokehM)"/>
  <circle cx="238" cy="362" r="20"  fill="#D05080" opacity="0.28" filter="url(#bokehM)"/>
  <circle cx="572" cy="344" r="22"  fill="#F0A0B8" opacity="0.30" filter="url(#bokehM)"/>
  <circle cx="188" cy="682" r="18"  fill="#F4C0D0" opacity="0.25" filter="url(#bokehM)"/>
  <circle cx="632" cy="702" r="20"  fill="#F9E04B" opacity="0.28" filter="url(#bokehM)"/>
  <circle cx="348" cy="88"  r="18"  fill="#FFFFFF"  opacity="0.24" filter="url(#bokehM)"/>
  <circle cx="452" cy="78"  r="16"  fill="#FFFFFF"  opacity="0.22" filter="url(#bokehM)"/>
  <circle cx="368" cy="38"  r="20"  fill="#FAD0E8" opacity="0.28" filter="url(#bokehM)"/>
  <circle cx="434" cy="48"  r="18"  fill="#F9E04B" opacity="0.30" filter="url(#bokehM)"/>
  <circle cx="268" cy="505" r="16"  fill="#C8EEFF"  opacity="0.28" filter="url(#bokehM)"/>
  <circle cx="536" cy="495" r="16"  fill="#C8EEFF"  opacity="0.28" filter="url(#bokehM)"/>

  <!-- ══ LIGHT STREAKS rising from cap ══ -->
  <g filter="url(#streakF)" opacity="0.38">
    <rect x="399" y="18"  width="2.5" height="88" rx="1.2" fill="#FAD0E8"/>
    <rect x="387" y="28"  width="2"   height="68" rx="1"   fill="#F9E04B"/>
    <rect x="413" y="14"  width="2"   height="78" rx="1"   fill="#FAD0E8"/>
    <rect x="376" y="44"  width="1.5" height="58" rx="0.75" fill="#F9E04B" opacity="0.85"/>
    <rect x="425" y="34"  width="1.5" height="68" rx="0.75" fill="#FAD0E8" opacity="0.85"/>
    <rect x="364" y="62"  width="1.2" height="48" rx="0.6"  fill="#FFFFFF"  opacity="0.72"/>
    <rect x="438" y="54"  width="1.2" height="54" rx="0.6"  fill="#FFFFFF"  opacity="0.72"/>
    <rect x="350" y="82"  width="1"   height="44" rx="0.5"  fill="#F4C0D0" opacity="0.62"/>
    <rect x="452" y="76"  width="1"   height="46" rx="0.5"  fill="#F4C0D0" opacity="0.62"/>
    <rect x="336" y="104" width="1"   height="38" rx="0.5"  fill="#F9E04B" opacity="0.52"/>
    <rect x="466" y="98"  width="1"   height="40" rx="0.5"  fill="#F9E04B" opacity="0.52"/>
    <!-- Side streaks -->
    <rect x="292" y="278" width="1.5" height="52" rx="0.75" fill="#F4C0D0" opacity="0.48" transform="rotate(-16,292,278)"/>
    <rect x="510" y="288" width="1.5" height="50" rx="0.75" fill="#F4C0D0" opacity="0.48" transform="rotate(16,510,288)"/>
    <rect x="268" y="402" width="1.2" height="44" rx="0.6"  fill="#D05080" opacity="0.38" transform="rotate(-22,268,402)"/>
    <rect x="534" y="412" width="1.2" height="46" rx="0.6"  fill="#D05080" opacity="0.38" transform="rotate(22,534,412)"/>
  </g>

  <!-- ══ PARTICLE FIELD – BEHIND ══ -->
  <g filter="url(#bokehS)" opacity="0.72">
    <!-- Dense above cap -->
    <circle cx="400" cy="66"  r="5.5" fill="#FFFFFF"/>
    <circle cx="386" cy="50"  r="4.5" fill="#FAD0E8"/>
    <circle cx="416" cy="42"  r="4"   fill="#F9E04B"/>
    <circle cx="372" cy="70"  r="4.5" fill="#FFFFFF"/>
    <circle cx="430" cy="60"  r="4"   fill="#FAD0E8"/>
    <circle cx="358" cy="88"  r="3.5" fill="#F9E04B"/>
    <circle cx="444" cy="82"  r="3.5" fill="#FFFFFF"/>
    <circle cx="344" cy="108" r="3"   fill="#FAD0E8"/>
    <circle cx="458" cy="102" r="3"   fill="#F9E04B"/>
    <circle cx="328" cy="132" r="3"   fill="#FFFFFF"/>
    <circle cx="474" cy="124" r="3"   fill="#FAD0E8"/>
    <circle cx="314" cy="158" r="2.5" fill="#F9E04B"/>
    <circle cx="490" cy="150" r="2.5" fill="#FFFFFF"/>
    <!-- Wider spread -->
    <circle cx="278" cy="198" r="4.5" fill="#FAD0E8"/>
    <circle cx="526" cy="186" r="4.5" fill="#F9E04B"/>
    <circle cx="254" cy="258" r="4"   fill="#F4C0D0"/>
    <circle cx="550" cy="248" r="4"   fill="#FAD0E8"/>
    <circle cx="236" cy="318" r="3.5" fill="#F9E04B"/>
    <circle cx="568" cy="310" r="3.5" fill="#F4C0D0"/>
    <!-- Sides of bottle body -->
    <circle cx="218" cy="428" r="5.5" fill="#F4C0D0"/>
    <circle cx="584" cy="418" r="5.5" fill="#F9E04B"/>
    <circle cx="206" cy="508" r="4.5" fill="#FAD0E8"/>
    <circle cx="598" cy="498" r="5"   fill="#F4C0D0"/>
    <circle cx="213" cy="588" r="4"   fill="#F9E04B"/>
    <circle cx="592" cy="578" r="4"   fill="#FAD0E8"/>
    <!-- Cool blue (refrigerator note) -->
    <circle cx="246" cy="468" r="4"   fill="#C8EEFF"/>
    <circle cx="558" cy="458" r="4"   fill="#C8EEFF"/>
    <circle cx="230" cy="548" r="3.5" fill="#A0D8EF"/>
    <circle cx="574" cy="538" r="3.5" fill="#C8EEFF"/>
    <!-- Lower sides -->
    <circle cx="234" cy="658" r="3.5" fill="#F4C0D0"/>
    <circle cx="572" cy="648" r="3.5" fill="#F9E04B"/>
    <circle cx="254" cy="718" r="3"   fill="#FAD0E8"/>
    <circle cx="552" cy="710" r="3"   fill="#F4C0D0"/>
    <!-- Far scatter -->
    <circle cx="148" cy="348" r="4.5" fill="#D05080"/>
    <circle cx="660" cy="358" r="4.5" fill="#F9E04B"/>
    <circle cx="128" cy="468" r="4"   fill="#FAD0E8"/>
    <circle cx="680" cy="478" r="4"   fill="#D05080"/>
    <circle cx="143" cy="598" r="3.5" fill="#F9E04B"/>
    <circle cx="665" cy="588" r="3.5" fill="#FAD0E8"/>
  </g>

  <!-- Ice crystal -->
  <g transform="translate(664,698)" opacity="0.70">
    <polygon points="0,-42 10,-10 42,0 10,10 0,42 -10,10 -42,0 -10,-10" fill="#C8EEFF" stroke="#82CBEF" stroke-width="1.2"/>
    <line x1="0" y1="-42" x2="0"  y2="42"  stroke="#A0D8EF" stroke-width="1.5"/>
    <line x1="-42" y1="0" x2="42" y2="0"   stroke="#A0D8EF" stroke-width="1.5"/>
    <line x1="-30" y1="-30" x2="30" y2="30" stroke="#A0D8EF" stroke-width="1"/>
    <line x1="-30" y1="30"  x2="30" y2="-30" stroke="#A0D8EF" stroke-width="1"/>
    <circle cx="0" cy="0" r="7" fill="#E4F8FF" stroke="#82CBEF" stroke-width="1"/>
  </g>
  <g transform="translate(80,370)" opacity="0.52">
    <line x1="0" y1="-24" x2="0"  y2="24"  stroke="#82CBEF" stroke-width="2"/>
    <line x1="-24" y1="0" x2="24" y2="0"   stroke="#82CBEF" stroke-width="2"/>
    <line x1="-17" y1="-17" x2="17" y2="17" stroke="#82CBEF" stroke-width="1.5"/>
    <line x1="-17" y1="17"  x2="17" y2="-17" stroke="#82CBEF" stroke-width="1.5"/>
    <circle cx="0" cy="0" r="4" fill="#C8EEFF"/>
    <circle cx="0"   cy="-24" r="2.5" fill="#A0D8EF"/>
    <circle cx="0"   cy="24"  r="2.5" fill="#A0D8EF"/>
    <circle cx="-24" cy="0"   r="2.5" fill="#A0D8EF"/>
    <circle cx="24"  cy="0"   r="2.5" fill="#A0D8EF"/>
  </g>

  <!-- ══ BOTTLE ══ -->
  <g filter="url(#bottleShadow)">
    <!-- Floor glow -->
    <ellipse cx="400" cy="810" rx="142" ry="22" fill="rgba(200,50,90,0.28)"/>

    <!-- Cap -->
    <rect x="336" y="106" width="128" height="66" rx="18" fill="url(#capGold)" stroke="#B08800" stroke-width="1.5"/>
    <rect x="344" y="112" width="112" height="54" rx="13" fill="url(#capGoldSide)"/>
    <rect x="352" y="114" width="48"  height="14" rx="7"  fill="rgba(255,255,255,0.55)"/>
    <line x1="344" y1="138" x2="456" y2="138" stroke="rgba(160,120,0,0.5)" stroke-width="1"/>
    <text x="400" y="145" text-anchor="middle" font-family="Georgia,serif" font-size="14"
          font-style="italic" fill="#7A5800" opacity="0.75">B</text>
    <rect x="332" y="164" width="136" height="10" rx="5" fill="#A87800" opacity="0.6"/>

    <!-- Ferrule -->
    <rect x="354" y="174" width="92" height="28" rx="7" fill="#D4A200" stroke="#A87800" stroke-width="1.2"/>
    <rect x="360" y="178" width="40" height="10" rx="5" fill="rgba(255,255,200,0.45)"/>

    <!-- Neck -->
    <path d="M374,200 L374,258 Q374,268 386,268 L414,268 Q426,268 426,258 L426,200 Z"
          fill="url(#neckGrad)" stroke="#B83868" stroke-width="1.2"/>
    <rect x="378" y="204" width="12" height="58" rx="6" fill="rgba(255,230,240,0.40)"/>

    <!-- Shoulder -->
    <path d="M288,342 Q284,268 374,258 L426,258 Q516,268 512,342 Z"
          fill="url(#shoulderGrad)" stroke="#A83060" stroke-width="1.5"/>
    <path d="M298,338 Q295,278 374,268 L398,266 Q305,278 302,340 Z"
          fill="rgba(255,220,235,0.35)"/>

    <!-- Body -->
    <path d="M288,342 L288,762 Q288,778 304,778 L496,778 Q512,778 512,762 L512,342 Z"
          fill="url(#bodyGrad)" stroke="#A03060" stroke-width="2"/>
    <path d="M288,342 L288,762 Q288,778 304,778 L496,778 Q512,778 512,762 L512,342 Z"
          fill="url(#glassInner)" clip-path="url(#bodyClip)"/>
    <path d="M292,348 L292,762 Q294,770 302,772 L316,772 L316,348 Z"
          fill="rgba(255,230,242,0.30)"/>
    <path d="M498,348 L498,764 Q504,768 510,760 L510,348 Z"
          fill="rgba(100,10,40,0.22)"/>
    <rect x="374" y="348" width="52" height="410" rx="4" fill="rgba(255,248,252,0.10)"/>

    <!-- Label -->
    <rect x="306" y="358" width="188" height="300" rx="18"
          fill="url(#labelBase)" stroke="rgba(200,130,155,0.45)" stroke-width="1.2"/>
    <rect x="306" y="358" width="188" height="42"  rx="18" fill="url(#goldStripe)"/>
    <rect x="306" y="382" width="188" height="18"          fill="#F9E04B"/>
    <text x="400" y="400" text-anchor="middle"
          font-family="Georgia,serif" font-size="11.5" font-weight="bold" letter-spacing="5.5" fill="#5A3800">BLÜTENFRISCH</text>
    <line x1="318" y1="406" x2="482" y2="406" stroke="#D4A200" stroke-width="0.8" opacity="0.7"/>
    <text x="400" y="433" text-anchor="middle"
          font-family="Georgia,serif" font-size="20" font-style="italic" fill="#800040">Frische</text>
    <text x="400" y="462" text-anchor="middle"
          font-family="Georgia,serif" font-size="30" font-weight="bold" letter-spacing="3" fill="#580A28">BLÜTE</text>
    <text x="400" y="481" text-anchor="middle"
          font-family="Arial,sans-serif" font-size="8" letter-spacing="3.5" fill="#A05070">EAU DE PARFUM</text>
    <line x1="340" y1="488" x2="460" y2="488" stroke="#D4A200" stroke-width="0.9"/>
    <circle cx="400" cy="488" r="3.5" fill="#F9E04B" stroke="#D4A200" stroke-width="0.8"/>
    <circle cx="375" cy="488" r="2"   fill="#D4A200" opacity="0.7"/>
    <circle cx="425" cy="488" r="2"   fill="#D4A200" opacity="0.7"/>

    <!-- Central rose on label -->
    <g transform="translate(400,562)">
      <ellipse cx="0"   cy="-38" rx="13" ry="25" fill="#E0809C" transform="rotate(0)"   opacity="0.90"/>
      <ellipse cx="36"  cy="-11" rx="13" ry="25" fill="#F2C0D0" transform="rotate(60,36,-11)"   opacity="0.90"/>
      <ellipse cx="36"  cy="11"  rx="13" ry="25" fill="#EAA0B8" transform="rotate(120,36,11)"   opacity="0.90"/>
      <ellipse cx="0"   cy="38"  rx="13" ry="25" fill="#D46090" transform="rotate(180)"          opacity="0.90"/>
      <ellipse cx="-36" cy="11"  rx="13" ry="25" fill="#EAA0B8" transform="rotate(240,-36,11)"  opacity="0.90"/>
      <ellipse cx="-36" cy="-11" rx="13" ry="25" fill="#F2C0D0" transform="rotate(300,-36,-11)" opacity="0.90"/>
      <ellipse cx="0"   cy="-24" rx="9"  ry="17" fill="#FCE8EE" transform="rotate(30)"  opacity="0.80"/>
      <ellipse cx="21"  cy="-12" rx="9"  ry="17" fill="#FCE8EE" transform="rotate(90,21,-12)"   opacity="0.80"/>
      <ellipse cx="21"  cy="12"  rx="9"  ry="17" fill="#F8D0E2" transform="rotate(150,21,12)"   opacity="0.80"/>
      <ellipse cx="0"   cy="24"  rx="9"  ry="17" fill="#F8D0E2" transform="rotate(210)"          opacity="0.80"/>
      <ellipse cx="-21" cy="12"  rx="9"  ry="17" fill="#F8D0E2" transform="rotate(270,-21,12)"  opacity="0.80"/>
      <ellipse cx="-21" cy="-12" rx="9"  ry="17" fill="#FCE8EE" transform="rotate(330,-21,-12)" opacity="0.80"/>
      <circle cx="0" cy="0" r="15" fill="#F9E04B"/>
      <circle cx="0" cy="0" r="10" fill="#D4A200"/>
      <circle cx="0" cy="0" r="5.5" fill="#FFE860"/>
      <circle cx="0"   cy="-8" r="1.8" fill="#7A5000" opacity="0.6"/>
      <circle cx="7"   cy="-4" r="1.8" fill="#7A5000" opacity="0.6"/>
      <circle cx="7"   cy="4"  r="1.8" fill="#7A5000" opacity="0.6"/>
      <circle cx="0"   cy="8"  r="1.8" fill="#7A5000" opacity="0.6"/>
      <circle cx="-7"  cy="4"  r="1.8" fill="#7A5000" opacity="0.6"/>
      <circle cx="-7"  cy="-4" r="1.8" fill="#7A5000" opacity="0.6"/>
    </g>
    <!-- Side blossoms on label -->
    <g transform="translate(334,567)" opacity="0.78">
      <ellipse cx="0"   cy="-14" rx="7" ry="11" fill="#F9E04B"/>
      <ellipse cx="12"  cy="-4"  rx="7" ry="11" fill="#FFE860" transform="rotate(72,12,-4)"/>
      <ellipse cx="8"   cy="10"  rx="7" ry="11" fill="#D4A200" transform="rotate(144,8,10)"/>
      <ellipse cx="-8"  cy="10"  rx="7" ry="11" fill="#F9E04B" transform="rotate(216,-8,10)"/>
      <ellipse cx="-12" cy="-4"  rx="7" ry="11" fill="#FFE860" transform="rotate(288,-12,-4)"/>
      <circle cx="0" cy="0" r="6.5" fill="#C89000"/>
    </g>
    <g transform="translate(466,567)" opacity="0.78">
      <ellipse cx="0"   cy="-14" rx="7" ry="11" fill="#E0809C"/>
      <ellipse cx="12"  cy="-4"  rx="7" ry="11" fill="#F2C0D0" transform="rotate(72,12,-4)"/>
      <ellipse cx="8"   cy="10"  rx="7" ry="11" fill="#CC608A" transform="rotate(144,8,10)"/>
      <ellipse cx="-8"  cy="10"  rx="7" ry="11" fill="#E0809C" transform="rotate(216,-8,10)"/>
      <ellipse cx="-12" cy="-4"  rx="7" ry="11" fill="#F2C0D0" transform="rotate(288,-12,-4)"/>
      <circle cx="0" cy="0" r="6.5" fill="#9C1840"/>
    </g>
    <ellipse cx="358" cy="544" rx="10" ry="20" fill="#4A8040" transform="rotate(-38,358,544)" opacity="0.48" filter="url(#leafF)"/>
    <ellipse cx="346" cy="560" rx="8"  ry="16" fill="#3A7030" transform="rotate(-55,346,560)" opacity="0.40"/>
    <ellipse cx="442" cy="544" rx="10" ry="20" fill="#4A8040" transform="rotate(38,442,544)"  opacity="0.48" filter="url(#leafF)"/>
    <ellipse cx="454" cy="560" rx="8"  ry="16" fill="#3A7030" transform="rotate(55,454,560)"  opacity="0.40"/>
    <!-- Ice icon label -->
    <g transform="translate(400,632)" opacity="0.48">
      <line x1="0" y1="-15" x2="0"  y2="15"  stroke="#82CBEF" stroke-width="2"/>
      <line x1="-15" y1="0" x2="15" y2="0"   stroke="#82CBEF" stroke-width="2"/>
      <line x1="-11" y1="-11" x2="11" y2="11" stroke="#82CBEF" stroke-width="1.4"/>
      <line x1="-11" y1="11"  x2="11" y2="-11" stroke="#82CBEF" stroke-width="1.4"/>
      <circle cx="0" cy="0" r="4" fill="#C8EEFF"/>
    </g>
    <text x="400" y="649" text-anchor="middle"
          font-family="Arial,sans-serif" font-size="8.5" letter-spacing="2.5" fill="#907080">50 ml · PARIS</text>
    <line x1="318" y1="654" x2="482" y2="654" stroke="rgba(180,100,130,0.35)" stroke-width="0.8"/>

    <!-- Base -->
    <path d="M288,766 L288,778 Q288,778 304,778 L496,778 Q512,778 512,766 Z"
          fill="#901838" opacity="0.55"/>
    <ellipse cx="400" cy="778" rx="96" ry="7" fill="rgba(255,160,192,0.20)"/>
  </g>

  <!-- ══ FOREGROUND PARTICLES (bright, in front) ══ -->
  <g filter="url(#pglow)">
    <!-- Gold near cap -->
    <circle cx="400" cy="94"  r="4"   fill="#FFE860"/>
    <circle cx="382" cy="76"  r="3.5" fill="#FFFFFF"/>
    <circle cx="420" cy="68"  r="3.5" fill="#F9E04B"/>
    <circle cx="366" cy="56"  r="3"   fill="#FFE860"/>
    <circle cx="436" cy="48"  r="3"   fill="#FFFFFF"/>
    <circle cx="352" cy="40"  r="2.5" fill="#F9E04B"/>
    <circle cx="450" cy="34"  r="2.5" fill="#FFE860"/>
    <circle cx="402" cy="28"  r="2.5" fill="#FFFFFF"/>
    <!-- Mid-distance -->
    <circle cx="290" cy="248" r="3.5" fill="#FAD0E8"/>
    <circle cx="514" cy="238" r="3.5" fill="#F9E04B"/>
    <circle cx="266" cy="328" r="3"   fill="#F2C0D0"/>
    <circle cx="538" cy="318" r="3"   fill="#FAD0E8"/>
    <!-- Cool blue near sides -->
    <circle cx="280" cy="462" r="3.5" fill="#C8EEFF"/>
    <circle cx="524" cy="452" r="3.5" fill="#C8EEFF"/>
    <circle cx="264" cy="542" r="3"   fill="#A0D8EF"/>
    <circle cx="540" cy="532" r="3"   fill="#C8EEFF"/>
    <!-- Close white sparks -->
    <circle cx="392" cy="112" r="3"   fill="#FFFFFF"/>
    <circle cx="410" cy="106" r="2.5" fill="#FFFFFF"/>
  </g>

  <!-- ── 4-pointed sparkle stars ── -->
  <g filter="url(#spark)">
    <!-- Hero star above cap -->
    <path d="M400,58 L403,67 L412,70 L403,73 L400,82 L397,73 L388,70 L397,67 Z" fill="#FFFFFF" opacity="0.95"/>
    <!-- Gold left-high -->
    <path d="M338,126 L340,133 L347,135 L340,137 L338,144 L336,137 L329,135 L336,133 Z" fill="#F9E04B" opacity="0.90"/>
    <!-- Gold right-high -->
    <path d="M463,116 L465,123 L472,125 L465,127 L463,134 L461,127 L454,125 L461,123 Z" fill="#F9E04B" opacity="0.88"/>
    <!-- Pink star left -->
    <path d="M255,296 L257,303 L264,305 L257,307 L255,314 L253,307 L246,305 L253,303 Z" fill="#FAD0E8" opacity="0.85"/>
    <!-- White star right -->
    <path d="M548,284 L550,291 L557,293 L550,295 L548,302 L546,295 L539,293 L546,291 Z" fill="#FFFFFF" opacity="0.80"/>
    <!-- Small gold star upper-left -->
    <path d="M306,174 L307.5,179 L313,180.5 L307.5,182 L306,187 L304.5,182 L299,180.5 L304.5,179 Z" fill="#F9E04B" opacity="0.84"/>
    <!-- Small pink star upper-right -->
    <path d="M496,164 L497.5,169 L503,170.5 L497.5,172 L496,177 L494.5,172 L489,170.5 L494.5,169 Z" fill="#FAD0E8" opacity="0.80"/>
    <!-- Tiny stars scattered -->
    <path d="M222,394 L223.5,398 L228,399.5 L223.5,401 L222,405 L220.5,401 L216,399.5 L220.5,398 Z" fill="#F9E04B" opacity="0.74"/>
    <path d="M580,382 L581.5,386 L586,387.5 L581.5,389 L580,393 L578.5,389 L574,387.5 L578.5,386 Z" fill="#FAD0E8" opacity="0.70"/>
    <path d="M208,508 L209.5,512 L214,513.5 L209.5,515 L208,519 L206.5,515 L202,513.5 L206.5,512 Z" fill="#FFFFFF"  opacity="0.64"/>
    <path d="M596,496 L597.5,500 L602,501.5 L597.5,503 L596,507 L594.5,503 L590,501.5 L594.5,500 Z" fill="#F9E04B" opacity="0.66"/>
    <!-- Ice-blue star -->
    <path d="M282,370 L283.5,374 L288,375.5 L283.5,377 L282,381 L280.5,377 L276,375.5 L280.5,374 Z" fill="#C8EEFF" opacity="0.72"/>
    <path d="M520,360 L521.5,364 L526,365.5 L521.5,367 L520,371 L518.5,367 L514,365.5 L518.5,364 Z" fill="#C8EEFF" opacity="0.70"/>
  </g>

  <!-- Sharpest white highlights (no filter) -->
  <circle cx="400" cy="86"  r="1.8" fill="#FFFFFF" opacity="0.96"/>
  <circle cx="388" cy="70"  r="1.4" fill="#FFFFFF" opacity="0.90"/>
  <circle cx="414" cy="64"  r="1.4" fill="#FFFFFF" opacity="0.88"/>
  <circle cx="374" cy="46"  r="1.2" fill="#F9E04B" opacity="0.85"/>
  <circle cx="428" cy="38"  r="1.2" fill="#F9E04B" opacity="0.82"/>
  <circle cx="358" cy="30"  r="1"   fill="#FFFFFF"  opacity="0.78"/>
  <circle cx="444" cy="24"  r="1"   fill="#FFFFFF"  opacity="0.75"/>
  <circle cx="284" cy="270" r="1.3" fill="#FFFFFF"  opacity="0.70"/>
  <circle cx="520" cy="262" r="1.3" fill="#FFFFFF"  opacity="0.68"/>
  <circle cx="274" cy="388" r="1.2" fill="#F9E04B" opacity="0.65"/>
  <circle cx="528" cy="380" r="1.2" fill="#F9E04B" opacity="0.62"/>
  <circle cx="272" cy="472" r="1.3" fill="#C8EEFF"  opacity="0.70"/>
  <circle cx="532" cy="464" r="1.3" fill="#C8EEFF"  opacity="0.68"/>

  <!-- ══ WATERMARK ══ -->
  <text x="400" y="912" text-anchor="middle"
        font-family="Georgia,serif" font-size="12" letter-spacing="9" fill="rgba(220,160,185,0.35)">BLÜTENFRISCH · PARIS</text>
  <line x1="252" y1="922" x2="548" y2="922" stroke="rgba(220,160,185,0.20)" stroke-width="0.8"/>
</svg>
